<svg xmlns="http://www.w3.org/2000/svg" width="169.356" height="142.671" viewBox="0 0 169.356 142.671">
  <g id="Layer_3" data-name="Layer 3" transform="translate(-346.278 -236.806)">
    <path id="Path_229" data-name="Path 229" d="M364.924,498.787v22.474c0,1.808,0,3.617.038,5.442H360.4a22.283,22.283,0,0,1-.221-2.294c-.956,1.711-2.748,2.753-5.771,2.753-4.994,0-8.13-4.016-8.13-10.09s3.352-10.446,8.864-10.446c3.039,0,4.567,1.134,5.037,2.089v-9.928Zm-13.761,18.155c0,4.13,1.749,6.365,4.551,6.365,4.022,0,4.648-3.207,4.648-6.521,0-3.693-.626-6.305-4.465-6.305-3.061.016-4.734,2.418-4.734,6.478Z" transform="translate(0 -155.205)" fill="#fff"/>
    <path id="Path_230" data-name="Path 230" d="M401.219,529.385c0,2.975,1.5,5.517,4.416,5.517,2.548,0,3.315-1.139,3.865-2.408h4.756c-.718,2.435-2.85,6.181-8.751,6.181-6.359,0-9.069-4.891-9.069-10.009,0-6.046,3.088-10.527,9.275-10.527,6.6,0,8.821,4.945,8.821,9.6a13.13,13.13,0,0,1-.065,1.62Zm8.54-3.018c-.038-2.6-1.188-4.745-4.07-4.745s-4.1,2-4.357,4.745Z" transform="translate(-29.8 -166.704)" fill="#fff"/>
    <path id="Path_231" data-name="Path 231" d="M446.72,532.427c.464,1.76,1.841,2.769,4.081,2.769s3.169-.9,3.169-2.284-.864-2.068-3.989-2.834c-6.127-1.5-7.218-3.39-7.218-6.127,0-2.845,2.041-5.8,7.666-5.8s7.687,3.142,7.882,5.825h-4.529c-.211-.907-.853-2.408-3.563-2.408-2.116,0-2.775.972-2.775,1.987,0,1.144.675,1.7,4,2.483,6.343,1.485,7.358,3.639,7.358,6.532,0,3.309-2.559,6.116-8.173,6.116s-8.13-2.769-8.584-6.262Z" transform="translate(-56.898 -166.711)" fill="#fff"/>
    <path id="Path_232" data-name="Path 232" d="M487.415,498.787h4.745v4.637h-4.745Zm0,8.3h4.745V526.7h-4.745Z" transform="translate(-83.854 -155.205)" fill="#fff"/>
    <path id="Path_233" data-name="Path 233" d="M522.049,536.036c0,6.295-2.419,10.144-9.5,10.144-6.759,0-8.308-3.779-8.551-6.138h4.832c.448,1.62,1.69,2.608,3.93,2.608,3.838,0,4.648-2.375,4.648-6.451v-1.155c-1.031,1.868-2.7,2.991-5.733,2.991-5.053,0-8.1-4.135-8.1-9.571,0-6.224,3.693-10.322,8.54-10.322,3.493,0,4.961,1.647,5.307,2.7.038-.653.157-1.879.194-2.23h4.5c-.027,1.544-.049,3.779-.049,5.641Zm-13.6-7.785c0,3.633,1.841,5.9,4.519,5.9,3.6,0,4.589-2.445,4.589-6.1s-.777-6.057-4.475-6.057C510.27,521.995,508.445,524.224,508.445,528.252Z" transform="translate(-93.455 -166.704)" fill="#fff"/>
    <path id="Path_234" data-name="Path 234" d="M556.365,523.544c0-1.684,0-3.471-.038-4.945h4.6a27.389,27.389,0,0,1,.184,2.742c.707-1.387,2.294-3.2,5.852-3.2,3.854,0,6.521,2.526,6.521,7.558v12.524h-4.745V526.238c0-2.462-.875-4.195-3.477-4.195-2.775,0-4.151,1.8-4.151,5.425v10.748h-4.745Z" transform="translate(-124.797 -166.704)" fill="#fff"/>
    <path id="Path_235" data-name="Path 235" d="M620.678,531.993c-.734,3.3-3.023,6.683-8.584,6.683-5.868,0-9.08-4.108-9.08-10.138,0-5.712,3.4-10.4,9.334-10.4,6.295,0,8.173,4.508,8.33,6.829h-4.654a3.508,3.508,0,0,0-3.779-3.056c-2.813,0-4.411,2.445-4.411,6.478,0,4.276,1.62,6.548,4.357,6.548A3.74,3.74,0,0,0,615.97,532Z" transform="translate(-152.534 -166.704)" fill="#fff"/>
    <path id="Path_236" data-name="Path 236" d="M649.94,526.719V498.787h4.745V526.7Z" transform="translate(-180.415 -155.205)" fill="#fff"/>
    <path id="Path_237" data-name="Path 237" d="M685.66,533.183c0,1.9,0,4.151.038,5.706h-4.643c-.076-.54-.113-1.62-.14-2.489-1.08,2.035-2.883,2.948-5.587,2.948-3.779,0-6.527-2.159-6.527-7.256V519.271h4.734v11.877c0,2.305.718,4.292,3.374,4.292,2.856,0,4.006-1.549,4.006-5.776V519.271h4.745Z" transform="translate(-191.62 -167.375)" fill="#fff"/>
    <path id="Path_238" data-name="Path 238" d="M717.693,498.787h4.745v10.635c.837-1.4,2.521-2.78,5.83-2.78,5.2,0,8.011,4.292,8.011,9.9,0,5.739-2.921,10.635-8.535,10.635-2.991,0-4.394-.977-5.361-2.564a12.981,12.981,0,0,1-.184,2.105h-4.546c.038-2.159.038-4.319.038-6.478ZM731.448,516.6c0-3.59-1.458-6.138-4.545-6.138-3.46,0-4.686,2.284-4.686,6.505,0,3.568,1.08,6.349,4.589,6.349,3,.032,4.643-2.613,4.643-6.683Z" transform="translate(-220.646 -155.205)" fill="#fff"/>
    <path id="Path_239" data-name="Path 239" d="M535.043,284.274a46.718,46.718,0,1,0-46.718,46.718,46.718,46.718,0,0,0,46.718-46.718" transform="translate(-56.637 0)" fill="none" stroke="#fff" stroke-linecap="round" stroke-linejoin="round" stroke-width="1.5"/>
    <line id="Line_57" data-name="Line 57" x1="64.474" transform="translate(390.26 262.697)" fill="none" stroke="#fff" stroke-linecap="round" stroke-linejoin="round" stroke-width="1.5"/>
    <line id="Line_58" data-name="Line 58" x1="59.734" transform="translate(387.954 267.884)" fill="none" stroke="#fff" stroke-linecap="round" stroke-linejoin="round" stroke-width="0.5"/>
    <line id="Line_59" data-name="Line 59" x1="57.11" transform="translate(387.069 270.465)" fill="none" stroke="#fff" stroke-linecap="round" stroke-linejoin="round" stroke-width="1.5"/>
    <line id="Line_60" data-name="Line 60" x1="62.19" transform="translate(389.023 265.288)" fill="none" stroke="#fff" stroke-linecap="round" stroke-linejoin="round" stroke-width="0.5"/>
    <line id="Line_61" data-name="Line 61" x1="21.248" y2="68.258" transform="translate(433.485 262.697)" fill="none" stroke="#fff" stroke-linecap="round" stroke-linejoin="round" stroke-width="1.5"/>
    <line id="Line_62" data-name="Line 62" x1="19.596" y2="62.968" transform="translate(428.092 267.884)" fill="none" stroke="#fff" stroke-linecap="round" stroke-linejoin="round" stroke-width="0.5"/>
    <line id="Line_63" data-name="Line 63" x1="18.717" y2="60.112" transform="translate(425.463 270.465)" fill="none" stroke="#fff" stroke-linecap="round" stroke-linejoin="round" stroke-width="1.5"/>
    <line id="Line_64" data-name="Line 64" x1="0.092" y2="0.297" transform="translate(409.964 325.324)" fill="none" stroke="#fff" stroke-linecap="round" stroke-linejoin="round" stroke-width="0.5"/>
    <line id="Line_65" data-name="Line 65" x1="20.449" y2="65.694" transform="translate(430.764 265.288)" fill="none" stroke="#fff" stroke-linecap="round" stroke-linejoin="round" stroke-width="0.5"/>
    <line id="Line_66" data-name="Line 66" x1="30.717" transform="translate(447.678 285.349)" fill="none" stroke="#fff" stroke-linecap="round" stroke-linejoin="round" stroke-width="0.5"/>
    <line id="Line_67" data-name="Line 67" x1="54.373" transform="translate(385.169 285.349)" fill="none" stroke="#fff" stroke-linecap="round" stroke-linejoin="round" stroke-width="0.5"/>
    <path id="Path_240" data-name="Path 240" d="M594.129,361.667h0" transform="translate(-147.256 -73.738)" fill="none" stroke="#fff" stroke-linecap="round" stroke-linejoin="round" stroke-width="0.5"/>
    <line id="Line_68" data-name="Line 68" x1="53.607" transform="translate(385.131 287.929)" fill="none" stroke="#fff" stroke-linecap="round" stroke-linejoin="round" stroke-width="0.5"/>
    <line id="Line_69" data-name="Line 69" x1="31.921" transform="translate(446.074 290.52)" fill="none" stroke="#fff" stroke-linecap="round" stroke-linejoin="round" stroke-width="0.5"/>
    <line id="Line_70" data-name="Line 70" x1="52.533" transform="translate(385.406 290.52)" fill="none" stroke="#fff" stroke-linecap="round" stroke-linejoin="round" stroke-width="0.5"/>
    <line id="Line_71" data-name="Line 71" x1="32.31" transform="translate(445.259 293.117)" fill="none" stroke="#fff" stroke-linecap="round" stroke-linejoin="round" stroke-width="0.5"/>
    <line id="Line_72" data-name="Line 72" x1="51.291" transform="translate(385.833 293.117)" fill="none" stroke="#fff" stroke-linecap="round" stroke-linejoin="round" stroke-width="0.5"/>
    <line id="Line_73" data-name="Line 73" y2="23.03" transform="translate(417.824 239.667)" fill="none" stroke="#fff" stroke-linecap="round" stroke-linejoin="round" stroke-width="0.5"/>
    <line id="Line_74" data-name="Line 74" y2="23.753" transform="translate(420.415 238.943)" fill="none" stroke="#fff" stroke-linecap="round" stroke-linejoin="round" stroke-width="0.5"/>
    <line id="Line_75" data-name="Line 75" y2="14.884" transform="translate(417.824 270.465)" fill="none" stroke="#fff" stroke-linecap="round" stroke-linejoin="round" stroke-width="0.5"/>
    <line id="Line_76" data-name="Line 76" y2="14.884" transform="translate(420.415 270.465)" fill="none" stroke="#fff" stroke-linecap="round" stroke-linejoin="round" stroke-width="0.5"/>
    <line id="Line_77" data-name="Line 77" y2="22.134" transform="translate(415.244 240.563)" fill="none" stroke="#fff" stroke-linecap="round" stroke-linejoin="round" stroke-width="0.5"/>
    <line id="Line_78" data-name="Line 78" y2="14.884" transform="translate(415.244 270.465)" fill="none" stroke="#fff" stroke-linecap="round" stroke-linejoin="round" stroke-width="0.5"/>
    <line id="Line_79" data-name="Line 79" y2="21.065" transform="translate(412.647 241.632)" fill="none" stroke="#fff" stroke-linecap="round" stroke-linejoin="round" stroke-width="0.5"/>
    <line id="Line_80" data-name="Line 80" y2="14.884" transform="translate(412.647 270.465)" fill="none" stroke="#fff" stroke-linecap="round" stroke-linejoin="round" stroke-width="0.5"/>
    <line id="Line_81" data-name="Line 81" y2="35.765" transform="translate(417.824 293.117)" fill="none" stroke="#fff" stroke-linecap="round" stroke-linejoin="round" stroke-width="0.5"/>
    <line id="Line_82" data-name="Line 82" y2="36.488" transform="translate(420.415 293.117)" fill="none" stroke="#fff" stroke-linecap="round" stroke-linejoin="round" stroke-width="0.5"/>
    <line id="Line_83" data-name="Line 83" y2="34.88" transform="translate(415.244 293.117)" fill="none" stroke="#fff" stroke-linecap="round" stroke-linejoin="round" stroke-width="0.5"/>
    <line id="Line_84" data-name="Line 84" y2="33.811" transform="translate(412.647 293.117)" fill="none" stroke="#fff" stroke-linecap="round" stroke-linejoin="round" stroke-width="0.5"/>
    <line id="Line_85" data-name="Line 85" transform="translate(438.544 265.288)" fill="none" stroke="#fff" stroke-linecap="round" stroke-linejoin="round" stroke-width="0.5"/>
    <line id="Line_86" data-name="Line 86" transform="translate(438.544 262.697)" fill="none" stroke="#fff" stroke-linecap="round" stroke-linejoin="round" stroke-width="0.5"/>
    <line id="Line_87" data-name="Line 87" x1="16.509" y1="25.853" transform="translate(386.259 295.098)" fill="none" stroke="#fff" stroke-linecap="round" stroke-linejoin="round" stroke-width="0.5"/>
    <line id="Line_88" data-name="Line 88" x1="2.008" y1="3.153" transform="translate(441.183 270.465)" fill="none" stroke="#fff" stroke-linecap="round" stroke-linejoin="round" stroke-width="0.5"/>
    <line id="Line_89" data-name="Line 89" x1="4.081" y1="6.381" transform="translate(438.112 270.465)" fill="none" stroke="#fff" stroke-linecap="round" stroke-linejoin="round" stroke-width="0.5"/>
    <line id="Line_90" data-name="Line 90" x1="6.138" y1="9.615" transform="translate(435.045 270.465)" fill="none" stroke="#fff" stroke-linecap="round" stroke-linejoin="round" stroke-width="0.5"/>
    <line id="Line_91" data-name="Line 91" x1="8.206" y1="12.848" transform="translate(431.968 270.465)" fill="none" stroke="#fff" stroke-linecap="round" stroke-linejoin="round" stroke-width="0.5"/>
    <line id="Line_92" data-name="Line 92" x1="9.501" y1="14.884" transform="translate(428.896 270.465)" fill="none" stroke="#fff" stroke-linecap="round" stroke-linejoin="round" stroke-width="0.5"/>
    <line id="Line_93" data-name="Line 93" x1="9.501" y1="14.884" transform="translate(425.819 270.465)" fill="none" stroke="#fff" stroke-linecap="round" stroke-linejoin="round" stroke-width="0.5"/>
    <line id="Line_94" data-name="Line 94" x1="9.501" y1="14.884" transform="translate(422.758 270.465)" fill="none" stroke="#fff" stroke-linecap="round" stroke-linejoin="round" stroke-width="0.5"/>
    <line id="Line_95" data-name="Line 95" x1="2.008" y1="3.142" transform="translate(434.138 293.117)" fill="none" stroke="#fff" stroke-linecap="round" stroke-linejoin="round" stroke-width="0.5"/>
    <line id="Line_96" data-name="Line 96" x1="8.767" y1="13.723" transform="translate(420.415 271.626)" fill="none" stroke="#fff" stroke-linecap="round" stroke-linejoin="round" stroke-width="0.5"/>
    <line id="Line_97" data-name="Line 97" x1="4.06" y1="6.365" transform="translate(431.077 293.117)" fill="none" stroke="#fff" stroke-linecap="round" stroke-linejoin="round" stroke-width="0.5"/>
    <line id="Line_98" data-name="Line 98" x1="5.69" y1="8.918" transform="translate(420.415 276.43)" fill="none" stroke="#fff" stroke-linecap="round" stroke-linejoin="round" stroke-width="0.5"/>
    <line id="Line_99" data-name="Line 99" x1="2.845" y1="4.459" transform="translate(420.415 280.889)" fill="none" stroke="#fff" stroke-linecap="round" stroke-linejoin="round" stroke-width="0.5"/>
    <line id="Line_100" data-name="Line 100" x1="6.138" y1="9.604" transform="translate(428 293.117)" fill="none" stroke="#fff" stroke-linecap="round" stroke-linejoin="round" stroke-width="0.5"/>
    <line id="Line_101" data-name="Line 101" x1="8.206" y1="12.838" transform="translate(424.923 293.117)" fill="none" stroke="#fff" stroke-linecap="round" stroke-linejoin="round" stroke-width="0.5"/>
    <line id="Line_102" data-name="Line 102" x1="2.192" y1="3.428" transform="translate(410.455 270.465)" fill="none" stroke="#fff" stroke-linecap="round" stroke-linejoin="round" stroke-width="0.5"/>
    <line id="Line_103" data-name="Line 103" x1="10.268" y1="16.071" transform="translate(421.851 293.117)" fill="none" stroke="#fff" stroke-linecap="round" stroke-linejoin="round" stroke-width="0.5"/>
    <line id="Line_104" data-name="Line 104" x1="5.253" y1="8.238" transform="translate(407.394 270.465)" fill="none" stroke="#fff" stroke-linecap="round" stroke-linejoin="round" stroke-width="0.5"/>
    <line id="Line_105" data-name="Line 105" x1="10.694" y1="16.751" transform="translate(420.415 295.676)" fill="none" stroke="#fff" stroke-linecap="round" stroke-linejoin="round" stroke-width="0.5"/>
    <line id="Line_106" data-name="Line 106" x1="8.33" y1="13.048" transform="translate(404.317 270.465)" fill="none" stroke="#fff" stroke-linecap="round" stroke-linejoin="round" stroke-width="0.5"/>
    <line id="Line_107" data-name="Line 107" x1="9.696" y1="15.181" transform="translate(420.415 300.48)" fill="none" stroke="#fff" stroke-linecap="round" stroke-linejoin="round" stroke-width="0.5"/>
    <line id="Line_108" data-name="Line 108" x1="9.501" y1="14.884" transform="translate(401.24 270.465)" fill="none" stroke="#fff" stroke-linecap="round" stroke-linejoin="round" stroke-width="0.5"/>
    <line id="Line_109" data-name="Line 109" x1="8.686" y1="13.593" transform="translate(420.415 305.291)" fill="none" stroke="#fff" stroke-linecap="round" stroke-linejoin="round" stroke-width="0.5"/>
    <line id="Line_110" data-name="Line 110" x1="0.011" y1="0.011" transform="translate(412.636 293.117)" fill="none" stroke="#fff" stroke-linecap="round" stroke-linejoin="round" stroke-width="0.5"/>
    <line id="Line_111" data-name="Line 111" x1="9.512" y1="14.884" transform="translate(398.168 270.465)" fill="none" stroke="#fff" stroke-linecap="round" stroke-linejoin="round" stroke-width="0.5"/>
    <line id="Line_112" data-name="Line 112" x1="7.677" y1="12.028" transform="translate(420.415 310.095)" fill="none" stroke="#fff" stroke-linecap="round" stroke-linejoin="round" stroke-width="0.5"/>
    <line id="Line_113" data-name="Line 113" x1="6.667" y1="10.441" transform="translate(420.415 314.916)" fill="none" stroke="#fff" stroke-linecap="round" stroke-linejoin="round" stroke-width="0.5"/>
    <line id="Line_114" data-name="Line 114" x1="5.668" y1="8.87" transform="translate(420.415 319.726)" fill="none" stroke="#fff" stroke-linecap="round" stroke-linejoin="round" stroke-width="0.5"/>
    <line id="Line_115" data-name="Line 115" x1="3.73" y1="5.841" transform="translate(420.415 324.531)" fill="none" stroke="#fff" stroke-linecap="round" stroke-linejoin="round" stroke-width="0.5"/>
    <line id="Line_116" data-name="Line 116" x1="3.088" y1="4.826" transform="translate(409.559 293.117)" fill="none" stroke="#fff" stroke-linecap="round" stroke-linejoin="round" stroke-width="0.5"/>
    <line id="Line_117" data-name="Line 117" x1="9.501" y1="14.884" transform="translate(395.102 270.465)" fill="none" stroke="#fff" stroke-linecap="round" stroke-linejoin="round" stroke-width="0.5"/>
    <line id="Line_118" data-name="Line 118" x1="6.16" y1="9.636" transform="translate(406.487 293.117)" fill="none" stroke="#fff" stroke-linecap="round" stroke-linejoin="round" stroke-width="0.5"/>
    <line id="Line_119" data-name="Line 119" x1="9.501" y1="14.884" transform="translate(392.03 270.465)" fill="none" stroke="#fff" stroke-linecap="round" stroke-linejoin="round" stroke-width="0.5"/>
    <line id="Line_120" data-name="Line 120" x1="9.226" y1="14.446" transform="translate(403.421 293.117)" fill="none" stroke="#fff" stroke-linecap="round" stroke-linejoin="round" stroke-width="0.5"/>
    <line id="Line_121" data-name="Line 121" x1="9.501" y1="14.884" transform="translate(388.953 270.465)" fill="none" stroke="#fff" stroke-linecap="round" stroke-linejoin="round" stroke-width="0.5"/>
    <line id="Line_122" data-name="Line 122" x1="12.298" y1="19.251" transform="translate(400.349 293.117)" fill="none" stroke="#fff" stroke-linecap="round" stroke-linejoin="round" stroke-width="0.5"/>
    <line id="Line_123" data-name="Line 123" x1="8.686" y1="13.61" transform="translate(386.691 271.739)" fill="none" stroke="#fff" stroke-linecap="round" stroke-linejoin="round" stroke-width="0.5"/>
    <line id="Line_124" data-name="Line 124" x1="15.375" y1="24.061" transform="translate(397.272 293.117)" fill="none" stroke="#fff" stroke-linecap="round" stroke-linejoin="round" stroke-width="0.5"/>
    <line id="Line_125" data-name="Line 125" x1="6.451" y1="10.101" transform="translate(385.865 275.248)" fill="none" stroke="#fff" stroke-linecap="round" stroke-linejoin="round" stroke-width="0.5"/>
    <line id="Line_126" data-name="Line 126" x1="18.452" y1="28.876" transform="translate(394.195 293.117)" fill="none" stroke="#fff" stroke-linecap="round" stroke-linejoin="round" stroke-width="0.5"/>
    <line id="Line_127" data-name="Line 127" x1="3.968" y1="6.219" transform="translate(385.271 279.129)" fill="none" stroke="#fff" stroke-linecap="round" stroke-linejoin="round" stroke-width="0.5"/>
    <line id="Line_128" data-name="Line 128" x1="21.513" y1="33.687" transform="translate(391.134 293.117)" fill="none" stroke="#fff" stroke-linecap="round" stroke-linejoin="round" stroke-width="0.5"/>
    <line id="Line_129" data-name="Line 129" x1="1.171" y1="1.846" transform="translate(384.996 283.502)" fill="none" stroke="#fff" stroke-linecap="round" stroke-linejoin="round" stroke-width="0.5"/>
    <line id="Line_130" data-name="Line 130" x1="20.153" y1="31.527" transform="translate(388.057 293.117)" fill="none" stroke="#fff" stroke-linecap="round" stroke-linejoin="round" stroke-width="0.5"/>
  </g>
</svg>
